<svg xmlns="http://www.w3.org/2000/svg" xmlns:xlink="http://www.w3.org/1999/xlink" preserveAspectRatio="xMidYMid meet" version="1.0" viewBox="0.0 0.0 16270.0 831.3" zoomAndPan="magnify" style="fill: rgb(0, 0, 0); " transform="scale (-1, 1)" original_string_length="2525"><defs><clipPath id="__id200_sla2k7vr7d"><path d="M 11320 0.03125 L 16270 0.03125 L 16270 779 L 11320 779 Z M 11320 0.03125"/></clipPath><clipPath id="__id201_sla2k7vr7d"><path d="M 0 726 L 15856 726 L 15856 831.328125 L 0 831.328125 Z M 0 726"/></clipPath></defs><g><g id="__id202_sla2k7vr7d"><path d="M 11580.601562 365.9375 L 4505.980469 365.9375 L 4566.769531 260.644531 L 11641.398438 260.644531 L 11580.601562 365.9375" style="fill: rgb(250, 133, 26);"/></g><g clip-path="url(#__id200_sla2k7vr7d)" id="__id203_sla2k7vr7d"><path d="M 12583.898438 -0.00390625 L 12471.300781 -0.00390625 L 12021.699219 778.675781 L 12190.601562 778.675781 L 12640.199219 -0.00390625 Z M 12247.101562 -0.00390625 L 12134.5 -0.00390625 L 11684.898438 778.675781 L 11853.800781 778.675781 L 12303.398438 -0.00390625 Z M 14253.699219 -0.00390625 L 14197.398438 -0.00390625 L 13747.800781 778.675781 L 13832.300781 778.675781 L 14281.898438 -0.00390625 Z M 13580.101562 -0.00390625 L 13523.800781 -0.00390625 L 13074.300781 778.675781 L 13158.699219 778.675781 L 13608.300781 -0.00390625 Z M 13916.898438 -0.00390625 L 13860.601562 -0.00390625 L 13411.101562 778.675781 L 13495.5 778.675781 L 13945.101562 -0.00390625 Z M 15572.699219 -0.00390625 L 15123.101562 778.675781 L 15151.300781 778.675781 L 15600.898438 -0.00390625 Z M 15909.5 -0.00390625 L 15459.898438 778.675781 L 15488.101562 778.675781 L 15937.601562 -0.00390625 Z M 16246.300781 -0.00390625 L 15796.699219 778.675781 L 15824.898438 778.675781 L 16274.398438 -0.00390625 Z M 14548.300781 -0.00390625 L 14098.699219 778.675781 L 14155 778.675781 L 14604.601562 -0.00390625 Z M 14885.101562 -0.00390625 L 14435.5 778.675781 L 14491.800781 778.675781 L 14941.398438 -0.00390625 Z M 15221.800781 -0.00390625 L 14772.300781 778.675781 L 14828.601562 778.675781 L 15278.101562 -0.00390625 Z M 13173 -0.00390625 L 12723.398438 778.675781 L 12836 778.675781 L 13285.601562 -0.00390625 Z M 12836.199219 -0.00390625 L 12386.601562 778.675781 L 12499.199219 778.675781 L 12948.800781 -0.00390625 Z M 11994.699219 -0.00390625 L 11545.199219 778.675781 L 11320 778.675781 L 11769.5 -0.00390625 L 11994.699219 -0.00390625" style="fill: rgb(250, 133, 26);"/></g><g clip-path="url(#__id201_sla2k7vr7d)" id="__id204_sla2k7vr7d"><path d="M 15794.5 831.328125 L 0 831.328125 L 60.785156 726.035156 L 15855.300781 726.035156 L 15794.5 831.328125" style="fill: rgb(250, 133, 26);"/></g></g></svg>