<svg xmlns="http://www.w3.org/2000/svg" xmlns:xlink="http://www.w3.org/1999/xlink" preserveAspectRatio="xMidYMid meet" version="1.0" viewBox="0.0 0.0 12274.3 773.1" zoomAndPan="magnify" style="fill: rgb(0, 0, 0);" original_string_length="7919"><defs><clipPath id="__id145_sla2k7vr7d"><path d="M 373 0 L 12274.300781 0 L 12274.300781 126 L 373 126 Z M 373 0"/></clipPath><clipPath id="__id146_sla2k7vr7d"><path d="M 0 647 L 11901 647 L 11901 773.128906 L 0 773.128906 Z M 0 647"/></clipPath></defs><g><g clip-path="url(#__id145_sla2k7vr7d)" id="__id147_sla2k7vr7d"><path d="M 7295.878906 125.742188 L 7368.480469 0.00390625 L 7232.71875 0.00390625 L 7160.121094 125.742188 Z M 9863.210938 125.742188 L 9935.808594 0.00390625 L 9850.160156 0.00390625 L 9777.570312 125.742188 Z M 10335.199219 125.742188 L 10407.800781 0.00390625 L 10329.300781 0.00390625 L 10256.699219 125.742188 Z M 10099.199219 125.742188 L 10171.800781 0.00390625 L 10093.300781 0.00390625 L 10020.699219 125.742188 Z M 9634.378906 125.742188 L 9706.96875 0.00390625 L 9614.160156 0.00390625 L 9541.570312 125.742188 Z M 8697.550781 125.742188 L 8770.148438 0.00390625 L 8663.011719 0.00390625 L 8590.421875 125.742188 Z M 9162.378906 125.742188 L 9234.980469 0.00390625 L 9135.011719 0.00390625 L 9062.410156 125.742188 Z M 8933.539062 125.742188 L 9006.140625 0.00390625 L 8899.011719 0.00390625 L 8826.421875 125.742188 Z M 9398.378906 125.742188 L 9470.96875 0.00390625 L 9378.171875 0.00390625 L 9305.570312 125.742188 Z M 8461.558594 125.742188 L 8534.148438 0.00390625 L 8419.859375 0.00390625 L 8347.269531 125.742188 Z M 10564 125.742188 L 10636.601562 0.00390625 L 10565.300781 0.00390625 L 10492.699219 125.742188 Z M 11965.699219 125.742188 L 12038.300781 0.00390625 L 11995.601562 0.00390625 L 11923 125.742188 Z M 12201.699219 125.742188 L 12274.300781 0.00390625 L 12238.800781 0.00390625 L 12166.199219 125.742188 Z M 11736.898438 125.742188 L 11809.5 0.00390625 L 11759.601562 0.00390625 L 11687 125.742188 Z M 11500.898438 125.742188 L 11573.5 0.00390625 L 11523.601562 0.00390625 L 11451 125.742188 Z M 10800 125.742188 L 10872.601562 0.00390625 L 10808.5 0.00390625 L 10735.898438 125.742188 Z M 11264.898438 125.742188 L 11337.5 0.00390625 L 11280.5 0.00390625 L 11207.898438 125.742188 Z M 11036 125.742188 L 11108.601562 0.00390625 L 11044.5 0.00390625 L 10971.898438 125.742188 Z M 4728.558594 125.742188 L 4801.148438 0.00390625 L 4608.109375 0.00390625 L 4535.519531 125.742188 Z M 5429.390625 125.742188 L 5501.988281 0.00390625 L 5323.261719 0.00390625 L 5250.671875 125.742188 Z M 8232.71875 125.742188 L 8305.308594 0.00390625 L 8183.871094 0.00390625 L 8111.269531 125.742188 Z M 5658.230469 125.742188 L 5730.820312 0.00390625 L 5559.261719 0.00390625 L 5486.671875 125.742188 Z M 4027.71875 125.742188 L 4100.328125 0.00390625 L 446.359375 0.00390625 L 373.761719 125.742188 Z M 4256.570312 125.742188 L 4329.160156 0.00390625 L 4128.960938 0.00390625 L 4056.359375 125.742188 Z M 4492.558594 125.742188 L 4565.160156 0.00390625 L 4372.121094 0.00390625 L 4299.519531 125.742188 Z M 4957.398438 125.742188 L 5030 0.00390625 L 4844.109375 0.00390625 L 4771.511719 125.742188 Z M 5894.21875 125.742188 L 5966.820312 0.00390625 L 5802.410156 0.00390625 L 5729.820312 125.742188 Z M 5193.398438 125.742188 L 5265.988281 0.00390625 L 5087.269531 0.00390625 L 5014.671875 125.742188 Z M 7531.878906 125.742188 L 7604.480469 0.00390625 L 7468.710938 0.00390625 L 7396.121094 125.742188 Z M 7760.71875 125.742188 L 7833.320312 0.00390625 L 7704.710938 0.00390625 L 7632.121094 125.742188 Z M 7996.710938 125.742188 L 8069.308594 0.00390625 L 7947.859375 0.00390625 L 7875.269531 125.742188 Z M 6130.210938 125.742188 L 6202.808594 0.00390625 L 6038.421875 0.00390625 L 5965.820312 125.742188 Z M 6359.058594 125.742188 L 6431.660156 0.00390625 L 6274.410156 0.00390625 L 6201.808594 125.742188 Z M 6595.058594 125.742188 L 6667.648438 0.00390625 L 6517.570312 0.00390625 L 6444.96875 125.742188 Z M 6831.050781 125.742188 L 6903.648438 0.00390625 L 6753.558594 0.00390625 L 6680.96875 125.742188 Z M 6916.960938 125.742188 L 6989.558594 0.00390625 L 7132.488281 0.00390625 L 7059.898438 125.742188 L 6916.960938 125.742188" style="fill: rgb(250, 133, 26);"/></g><g clip-path="url(#__id146_sla2k7vr7d)" id="__id148_sla2k7vr7d"><path d="M 6143.800781 647.398438 L 6071.199219 773.128906 L 6221.289062 773.128906 L 6293.878906 647.398438 Z M 5900.640625 647.398438 L 5828.039062 773.128906 L 5985.289062 773.128906 L 6057.890625 647.398438 Z M 6379.789062 647.398438 L 6307.210938 773.128906 L 6457.289062 773.128906 L 6529.871094 647.398438 Z M 6615.789062 647.398438 L 6543.191406 773.128906 L 6686.121094 773.128906 L 6758.71875 647.398438 Z M 7330.941406 647.398438 L 7258.351562 773.128906 L 7386.949219 773.128906 L 7459.550781 647.398438 Z M 7094.941406 647.398438 L 7022.339844 773.128906 L 7158.109375 773.128906 L 7230.710938 647.398438 Z M 6858.949219 647.398438 L 6786.351562 773.128906 L 6922.121094 773.128906 L 6994.710938 647.398438 Z M 5664.648438 647.398438 L 5592.050781 773.128906 L 5756.449219 773.128906 L 5829.039062 647.398438 Z M 4949.488281 647.398438 L 4876.898438 773.128906 L 5055.628906 773.128906 L 5128.210938 647.398438 Z M 4234.339844 647.398438 L 4161.75 773.128906 L 4354.789062 773.128906 L 4427.378906 647.398438 Z M 3998.351562 647.398438 L 3925.75 773.128906 L 4118.789062 773.128906 L 4191.390625 647.398438 Z M 3755.191406 647.398438 L 3682.589844 773.128906 L 3882.800781 773.128906 L 3955.390625 647.398438 Z M 5185.488281 647.398438 L 5112.898438 773.128906 L 5284.460938 773.128906 L 5357.050781 647.398438 Z M 5428.640625 647.398438 L 5356.050781 773.128906 L 5520.460938 773.128906 L 5593.050781 647.398438 Z M 4470.339844 647.398438 L 4397.75 773.128906 L 4583.628906 773.128906 L 4656.230469 647.398438 Z M 4713.5 647.398438 L 4640.910156 773.128906 L 4819.621094 773.128906 L 4892.21875 647.398438 Z M 7574.089844 647.398438 L 7501.5 773.128906 L 7622.949219 773.128906 L 7695.539062 647.398438 Z M 10670.699219 647.398438 L 10598.101562 773.128906 L 10662.300781 773.128906 L 10734.898438 647.398438 Z M 10906.699219 647.398438 L 10834.101562 773.128906 L 10891.101562 773.128906 L 10963.699219 647.398438 Z M 72.585938 647.398438 L 0 773.128906 L 3653.960938 773.128906 L 3726.550781 647.398438 Z M 10434.699219 647.398438 L 10362.101562 773.128906 L 10426.300781 773.128906 L 10498.898438 647.398438 Z M 11385.800781 647.398438 L 11313.300781 773.128906 L 11363.101562 773.128906 L 11435.699219 647.398438 Z M 11865 647.398438 L 11792.398438 773.128906 L 11827.898438 773.128906 L 11900.5 647.398438 Z M 10191.5 647.398438 L 10118.898438 773.128906 L 10190.300781 773.128906 L 10262.898438 647.398438 Z M 11621.800781 647.398438 L 11549.199219 773.128906 L 11591.898438 773.128906 L 11664.5 647.398438 Z M 11149.800781 647.398438 L 11077.300781 773.128906 L 11127.101562 773.128906 L 11199.699219 647.398438 Z M 8525.238281 647.398438 L 8452.648438 773.128906 L 8559.769531 773.128906 L 8632.371094 647.398438 Z M 7810.101562 647.398438 L 7737.5 773.128906 L 7858.949219 773.128906 L 7931.539062 647.398438 Z M 8761.238281 647.398438 L 8688.640625 773.128906 L 8788.621094 773.128906 L 8861.210938 647.398438 Z M 8046.089844 647.398438 L 7973.5 773.128906 L 8087.78125 773.128906 L 8160.378906 647.398438 Z M 8289.238281 647.398438 L 8216.648438 773.128906 L 8323.789062 773.128906 L 8396.371094 647.398438 Z M 9476.390625 647.398438 L 9403.800781 773.128906 L 9489.449219 773.128906 L 9562.039062 647.398438 Z M 9004.398438 647.398438 L 8931.800781 773.128906 L 9024.609375 773.128906 L 9097.199219 647.398438 Z M 9719.550781 647.398438 L 9646.960938 773.128906 L 9725.449219 773.128906 L 9798.03125 647.398438 Z M 9955.539062 647.398438 L 9882.949219 773.128906 L 9961.441406 773.128906 L 10034 647.398438 Z M 9333.199219 647.398438 L 9260.609375 773.128906 L 9167.789062 773.128906 L 9240.390625 647.398438 L 9333.199219 647.398438" style="fill: rgb(250, 133, 26);"/></g></g></svg>