<svg xmlns="http://www.w3.org/2000/svg" xmlns:xlink="http://www.w3.org/1999/xlink" style="margin:auto;background:#f1f2f3;display:block;z-index:1;position:relative" width="1399" height="751" preserveAspectRatio="xMidYMid" viewBox="0 0 1399 751">
<g transform="translate(699.5,375.5) scale(1,1) translate(-699.5,-375.5)"><defs>
<linearGradient id="lg-0.8665294902999998" x1="0" x2="0" y1="0" y2="1">
  <stop stop-color="#000000" offset="0.3"></stop>
  <stop stop-color="#000000" offset="0.6499999999999999"></stop>
  <stop stop-color="#000000" offset="1"></stop>
</linearGradient>
<linearGradient id="fg-lg-0.8665294902999998" x1="0" x2="0" y1="0" y2="1">
  <stop stop-color="#000000" stop-opacity="1" offset="0.3"></stop>
  <stop stop-color="#000000" stop-opacity="0.66" offset="0.6499999999999999"></stop>
  <stop stop-color="#000000" stop-opacity="0" offset="1"></stop>
</linearGradient>
<style type="text/css">
  path { fill: none; stroke: #fb6404; stroke-width: 2px }
</style>
</defs>
<rect x="0" y="0" width="1399" height="751" fill="url(#lg-0.8665294902999998)"></rect><path d="M0 225.29999999999998 L-9793 751"></path><path d="M10.761538461538462 225.29999999999998 L-9631.576923076924 751"></path><path d="M21.523076923076925 225.29999999999998 L-9470.153846153846 751"></path><path d="M32.284615384615385 225.29999999999998 L-9308.73076923077 751"></path><path d="M43.04615384615385 225.29999999999998 L-9147.307692307691 751"></path><path d="M53.80769230769231 225.29999999999998 L-8985.884615384615 751"></path><path d="M64.56923076923077 225.29999999999998 L-8824.461538461539 751"></path><path d="M75.33076923076923 225.29999999999998 L-8663.038461538461 751"></path><path d="M86.0923076923077 225.29999999999998 L-8501.615384615385 751"></path><path d="M96.85384615384615 225.29999999999998 L-8340.192307692309 751"></path><path d="M107.61538461538461 225.29999999999998 L-8178.7692307692305 751"></path><path d="M118.37692307692308 225.29999999999998 L-8017.346153846154 751"></path><path d="M129.13846153846154 225.29999999999998 L-7855.923076923077 751"></path><path d="M139.9 225.29999999999998 L-7694.5 751"></path><path d="M150.66153846153847 225.29999999999998 L-7533.076923076923 751"></path><path d="M161.42307692307693 225.29999999999998 L-7371.653846153846 751"></path><path d="M172.1846153846154 225.29999999999998 L-7210.2307692307695 751"></path><path d="M182.94615384615383 225.29999999999998 L-7048.807692307692 751"></path><path d="M193.7076923076923 225.29999999999998 L-6887.384615384615 751"></path><path d="M204.46923076923076 225.29999999999998 L-6725.961538461539 751"></path><path d="M215.23076923076923 225.29999999999998 L-6564.538461538461 751"></path><path d="M225.9923076923077 225.29999999999998 L-6403.115384615385 751"></path><path d="M236.75384615384615 225.29999999999998 L-6241.692307692308 751"></path><path d="M247.51538461538462 225.29999999999998 L-6080.2692307692305 751"></path><path d="M258.2769230769231 225.29999999999998 L-5918.846153846154 751"></path><path d="M269.03846153846155 225.29999999999998 L-5757.423076923077 751"></path><path d="M279.8 225.29999999999998 L-5596 751"></path><path d="M290.5615384615385 225.29999999999998 L-5434.576923076923 751"></path><path d="M301.32307692307694 225.29999999999998 L-5273.153846153846 751"></path><path d="M312.0846153846154 225.29999999999998 L-5111.7307692307695 751"></path><path d="M322.84615384615387 225.29999999999998 L-4950.307692307692 751"></path><path d="M333.60769230769233 225.29999999999998 L-4788.884615384615 751"></path><path d="M344.3692307692308 225.29999999999998 L-4627.461538461538 751"></path><path d="M355.1307692307692 225.29999999999998 L-4466.038461538462 751"></path><path d="M365.89230769230767 225.29999999999998 L-4304.615384615385 751"></path><path d="M376.65384615384613 225.29999999999998 L-4143.192307692308 751"></path><path d="M387.4153846153846 225.29999999999998 L-3981.7692307692305 751"></path><path d="M398.17692307692306 225.29999999999998 L-3820.3461538461543 751"></path><path d="M408.9384615384615 225.29999999999998 L-3658.923076923077 751"></path><path d="M419.7 225.29999999999998 L-3497.5 751"></path><path d="M430.46153846153845 225.29999999999998 L-3336.076923076923 751"></path><path d="M441.2230769230769 225.29999999999998 L-3174.6538461538457 751"></path><path d="M451.9846153846154 225.29999999999998 L-3013.2307692307695 751"></path><path d="M462.74615384615385 225.29999999999998 L-2851.8076923076924 751"></path><path d="M473.5076923076923 225.29999999999998 L-2690.3846153846152 751"></path><path d="M484.2692307692308 225.29999999999998 L-2528.961538461538 751"></path><path d="M495.03076923076924 225.29999999999998 L-2367.538461538462 751"></path><path d="M505.7923076923077 225.29999999999998 L-2206.1153846153848 751"></path><path d="M516.5538461538462 225.29999999999998 L-2044.6923076923076 751"></path><path d="M527.3153846153846 225.29999999999998 L-1883.2692307692305 751"></path><path d="M538.0769230769231 225.29999999999998 L-1721.8461538461543 751"></path><path d="M548.8384615384615 225.29999999999998 L-1560.4230769230762 751"></path><path d="M559.6 225.29999999999998 L-1399 751"></path><path d="M570.3615384615384 225.29999999999998 L-1237.5769230769238 751"></path><path d="M581.123076923077 225.29999999999998 L-1076.1538461538457 751"></path><path d="M591.8846153846154 225.29999999999998 L-914.7307692307695 751"></path><path d="M602.6461538461539 225.29999999999998 L-753.3076923076915 751"></path><path d="M613.4076923076923 225.29999999999998 L-591.8846153846152 751"></path><path d="M624.1692307692308 225.29999999999998 L-430.461538461539 751"></path><path d="M634.9307692307692 225.29999999999998 L-269.038461538461 751"></path><path d="M645.6923076923077 225.29999999999998 L-107.61538461538476 751"></path><path d="M656.4538461538461 225.29999999999998 L53.80769230769147 751"></path><path d="M667.2153846153847 225.29999999999998 L215.2307692307695 751"></path><path d="M677.9769230769231 225.29999999999998 L376.65384615384573 751"></path><path d="M688.7384615384616 225.29999999999998 L538.0769230769238 751"></path><path d="M699.5 225.29999999999998 L699.5 751"></path><path d="M710.2615384615384 225.29999999999998 L860.9230769230762 751"></path><path d="M721.0230769230769 225.29999999999998 L1022.3461538461543 751"></path><path d="M731.7846153846153 225.29999999999998 L1183.7692307692305 751"></path><path d="M742.5461538461539 225.29999999999998 L1345.1923076923085 751"></path><path d="M753.3076923076923 225.29999999999998 L1506.6153846153848 751"></path><path d="M764.0692307692308 225.29999999999998 L1668.038461538461 751"></path><path d="M774.8307692307692 225.29999999999998 L1829.461538461539 751"></path><path d="M785.5923076923077 225.29999999999998 L1990.8846153846152 751"></path><path d="M796.3538461538461 225.29999999999998 L2152.3076923076915 751"></path><path d="M807.1153846153846 225.29999999999998 L2313.7307692307695 751"></path><path d="M817.876923076923 225.29999999999998 L2475.1538461538457 751"></path><path d="M828.6384615384616 225.29999999999998 L2636.576923076924 751"></path><path d="M839.4 225.29999999999998 L2798 751"></path><path d="M850.1615384615385 225.29999999999998 L2959.423076923076 751"></path><path d="M860.9230769230769 225.29999999999998 L3120.8461538461543 751"></path><path d="M871.6846153846154 225.29999999999998 L3282.2692307692305 751"></path><path d="M882.4461538461538 225.29999999999998 L3443.6923076923085 751"></path><path d="M893.2076923076924 225.29999999999998 L3605.1153846153848 751"></path><path d="M903.9692307692308 225.29999999999998 L3766.538461538461 751"></path><path d="M914.7307692307693 225.29999999999998 L3927.961538461539 751"></path><path d="M925.4923076923077 225.29999999999998 L4089.3846153846152 751"></path><path d="M936.2538461538461 225.29999999999998 L4250.8076923076915 751"></path><path d="M947.0153846153846 225.29999999999998 L4412.2307692307695 751"></path><path d="M957.776923076923 225.29999999999998 L4573.653846153846 751"></path><path d="M968.5384615384615 225.29999999999998 L4735.076923076924 751"></path><path d="M979.3 225.29999999999998 L4896.5 751"></path><path d="M990.0615384615385 225.29999999999998 L5057.923076923076 751"></path><path d="M1000.8230769230769 225.29999999999998 L5219.346153846154 751"></path><path d="M1011.5846153846154 225.29999999999998 L5380.7692307692305 751"></path><path d="M1022.3461538461538 225.29999999999998 L5542.1923076923085 751"></path><path d="M1033.1076923076923 225.29999999999998 L5703.615384615385 751"></path><path d="M1043.8692307692309 225.29999999999998 L5865.038461538461 751"></path><path d="M1054.6307692307691 225.29999999999998 L6026.461538461539 751"></path><path d="M1065.3923076923077 225.29999999999998 L6187.884615384615 751"></path><path d="M1076.1538461538462 225.29999999999998 L6349.3076923076915 751"></path><path d="M1086.9153846153847 225.29999999999998 L6510.7307692307695 751"></path><path d="M1097.676923076923 225.29999999999998 L6672.153846153848 751"></path><path d="M1108.4384615384615 225.29999999999998 L6833.576923076922 751"></path><path d="M1119.2 225.29999999999998 L6995 751"></path><path d="M1129.9615384615386 225.29999999999998 L7156.423076923078 751"></path><path d="M1140.7230769230769 225.29999999999998 L7317.846153846152 751"></path><path d="M1151.4846153846154 225.29999999999998 L7479.2692307692305 751"></path><path d="M1162.246153846154 225.29999999999998 L7640.6923076923085 751"></path><path d="M1173.0076923076922 225.29999999999998 L7802.115384615383 751"></path><path d="M1183.7692307692307 225.29999999999998 L7963.538461538461 751"></path><path d="M1194.5307692307692 225.29999999999998 L8124.961538461539 751"></path><path d="M1205.2923076923078 225.29999999999998 L8286.384615384617 751"></path><path d="M1216.053846153846 225.29999999999998 L8447.807692307691 751"></path><path d="M1226.8153846153846 225.29999999999998 L8609.23076923077 751"></path><path d="M1237.576923076923 225.29999999999998 L8770.653846153848 751"></path><path d="M1248.3384615384616 225.29999999999998 L8932.076923076922 751"></path><path d="M1259.1 225.29999999999998 L9093.5 751"></path><path d="M1269.8615384615384 225.29999999999998 L9254.923076923078 751"></path><path d="M1280.623076923077 225.29999999999998 L9416.346153846152 751"></path><path d="M1291.3846153846155 225.29999999999998 L9577.76923076923 751"></path><path d="M1302.1461538461538 225.29999999999998 L9739.192307692309 751"></path><path d="M1312.9076923076923 225.29999999999998 L9900.615384615383 751"></path><path d="M1323.6692307692308 225.29999999999998 L10062.038461538461 751"></path><path d="M1334.4307692307693 225.29999999999998 L10223.461538461539 751"></path><path d="M1345.1923076923076 225.29999999999998 L10384.884615384617 751"></path><path d="M1355.9538461538461 225.29999999999998 L10546.307692307691 751"></path><path d="M1366.7153846153847 225.29999999999998 L10707.73076923077 751"></path><path d="M1377.4769230769232 225.29999999999998 L10869.153846153848 751"></path><path d="M1388.2384615384615 225.29999999999998 L11030.576923076922 751"></path><path d="M1399 225.29999999999998 L11192 751"></path><g>
<path d="M0 225.29999999999998 L1399 225.29999999999998"></path>
<animateTransform attributeName="transform" type="translate" repeatCount="indefinite" calcMode="linear" keyTimes="0;1" values="0 0;0 3.981633136094674" begin="0s" dur="0.6172839506172839s"></animateTransform>

</g><g>
<path d="M0 229.28163313609465 L1399 229.28163313609465"></path>
<animateTransform attributeName="transform" type="translate" repeatCount="indefinite" calcMode="linear" keyTimes="0;1" values="0 0;0 7.963266272189349" begin="0s" dur="0.6172839506172839s"></animateTransform>

</g><g>
<path d="M0 237.244899408284 L1399 237.244899408284"></path>
<animateTransform attributeName="transform" type="translate" repeatCount="indefinite" calcMode="linear" keyTimes="0;1" values="0 0;0 11.944899408284023" begin="0s" dur="0.6172839506172839s"></animateTransform>

</g><g>
<path d="M0 249.18979881656801 L1399 249.18979881656801"></path>
<animateTransform attributeName="transform" type="translate" repeatCount="indefinite" calcMode="linear" keyTimes="0;1" values="0 0;0 15.926532544378697" begin="0s" dur="0.6172839506172839s"></animateTransform>

</g><g>
<path d="M0 265.11633136094673 L1399 265.11633136094673"></path>
<animateTransform attributeName="transform" type="translate" repeatCount="indefinite" calcMode="linear" keyTimes="0;1" values="0 0;0 19.90816568047337" begin="0s" dur="0.6172839506172839s"></animateTransform>

</g><g>
<path d="M0 285.0244970414201 L1399 285.0244970414201"></path>
<animateTransform attributeName="transform" type="translate" repeatCount="indefinite" calcMode="linear" keyTimes="0;1" values="0 0;0 23.889798816568046" begin="0s" dur="0.6172839506172839s"></animateTransform>

</g><g>
<path d="M0 308.9142958579881 L1399 308.9142958579881"></path>
<animateTransform attributeName="transform" type="translate" repeatCount="indefinite" calcMode="linear" keyTimes="0;1" values="0 0;0 27.87143195266272" begin="0s" dur="0.6172839506172839s"></animateTransform>

</g><g>
<path d="M0 336.7857278106508 L1399 336.7857278106508"></path>
<animateTransform attributeName="transform" type="translate" repeatCount="indefinite" calcMode="linear" keyTimes="0;1" values="0 0;0 31.853065088757393" begin="0s" dur="0.6172839506172839s"></animateTransform>

</g><g>
<path d="M0 368.6387928994082 L1399 368.6387928994082"></path>
<animateTransform attributeName="transform" type="translate" repeatCount="indefinite" calcMode="linear" keyTimes="0;1" values="0 0;0 35.83469822485207" begin="0s" dur="0.6172839506172839s"></animateTransform>

</g><g>
<path d="M0 404.47349112426025 L1399 404.47349112426025"></path>
<animateTransform attributeName="transform" type="translate" repeatCount="indefinite" calcMode="linear" keyTimes="0;1" values="0 0;0 39.81633136094674" begin="0s" dur="0.6172839506172839s"></animateTransform>

</g><g>
<path d="M0 444.28982248520697 L1399 444.28982248520697"></path>
<animateTransform attributeName="transform" type="translate" repeatCount="indefinite" calcMode="linear" keyTimes="0;1" values="0 0;0 43.79796449704141" begin="0s" dur="0.6172839506172839s"></animateTransform>

</g><g>
<path d="M0 488.08778698224836 L1399 488.08778698224836"></path>
<animateTransform attributeName="transform" type="translate" repeatCount="indefinite" calcMode="linear" keyTimes="0;1" values="0 0;0 47.779597633136085" begin="0s" dur="0.6172839506172839s"></animateTransform>

</g><g>
<path d="M0 535.8673846153845 L1399 535.8673846153845"></path>
<animateTransform attributeName="transform" type="translate" repeatCount="indefinite" calcMode="linear" keyTimes="0;1" values="0 0;0 51.76123076923076" begin="0s" dur="0.6172839506172839s"></animateTransform>

</g><g>
<path d="M0 587.6286153846153 L1399 587.6286153846153"></path>
<animateTransform attributeName="transform" type="translate" repeatCount="indefinite" calcMode="linear" keyTimes="0;1" values="0 0;0 55.74286390532543" begin="0s" dur="0.6172839506172839s"></animateTransform>

</g><g>
<path d="M0 643.3714792899407 L1399 643.3714792899407"></path>
<animateTransform attributeName="transform" type="translate" repeatCount="indefinite" calcMode="linear" keyTimes="0;1" values="0 0;0 59.7244970414201" begin="0s" dur="0.6172839506172839s"></animateTransform>

</g><g>
<path d="M0 703.0959763313608 L1399 703.0959763313608"></path>
<animateTransform attributeName="transform" type="translate" repeatCount="indefinite" calcMode="linear" keyTimes="0;1" values="0 0;0 63.70613017751478" begin="0s" dur="0.6172839506172839s"></animateTransform>

</g><g>
<path d="M0 766.8021065088756 L1399 766.8021065088756"></path>
<animateTransform attributeName="transform" type="translate" repeatCount="indefinite" calcMode="linear" keyTimes="0;1" values="0 0;0 67.68776331360945" begin="0s" dur="0.6172839506172839s"></animateTransform>

</g><rect x="0" y="0" width="1399" height="751" fill="url(#fg-lg-0.8665294902999998)"></rect></g>
</svg>